# xmcd
#
# Track frame offsets: 
#        200
#        11525
#        21800
#        34925
#        45200
#        56075
#        66125
#        77150
#        89675
#        99275
#        112100
#        124700
#        137000
#        150500
#        164600
#
# Disc length: 2357 seconds
#
# Revision: 2
# Processed by: cddbd v1.4PL0 Copyright (c) Steve Scherf et al.
# Submitted via: ExactAudioCopy v0.90b4
#
DISCID=be09330f
DTITLE=Floyd Cramer - Floyd Cramer Plays Your All-Time Country Favorit
DTITLE=es - Disc 1
DYEAR=1900
DGENRE=Country
TTITLE0=Last Date
TTITLE1=Help Me Make It Through The Night
TTITLE2=Sweet Dreams
TTITLE3=Walking The Floor Over You
TTITLE4=He Stopped Loving Her Today
TTITLE5=Blue Eyes Crying In The Rain
TTITLE6=Hello Darlin'
TTITLE7=It's Only Make Believe
TTITLE8=Jambalaya
TTITLE9=I Fall To Pieces
TTITLE10=Singing The Blues
TTITLE11=Behind Closed Doors
TTITLE12=Another Somebody Done Somebody Wrong Song
TTITLE13=Almost Persuaded
TTITLE14=She Thinks I Still Care
EXTD=
EXTT0=
EXTT1=
EXTT2=
EXTT3=
EXTT4=
EXTT5=
EXTT6=
EXTT7=
EXTT8=
EXTT9=
EXTT10=
EXTT11=
EXTT12=
EXTT13=
EXTT14=
PLAYORDER=
